<svg width="42" height="42" viewBox="0 0 256 256" fill="none" xmlns="http://www.w3.org/2000/svg" preserveAspectRatio="xMidYMid meet">
  <defs>
    <filter id="discord-glow" x="-100%" y="-100%" width="300%" height="300%">
      <feGaussianBlur in="SourceAlpha" stdDeviation="10" result="glow"/>
      <feMerge>
        <feMergeNode in="glow"/>
        <feMergeNode in="SourceGraphic"/>
      </feMerge>
    </filter>
  </defs>

  <g filter="url(#discord-glow)" fill="#5865F2">
    <path d="M216.86 16.6C200.29 8.84 182.57 3.21 164.04 0c-2.27 4.11-4.93 9.65-6.76 14.05-19.69-2.96-39.21-2.96-58.55 0-1.83-4.4-4.55-9.65-6.84-14.05-18.54 3.21-36.29 8.86-52.86 16.64C5.62 67.15-3.44 116.4 1.09 164.96c22.17 16.55 43.66 26.61 64.79 33.19 5.22-7.18 9.88-14.82 13.89-22.86-7.64-2.9-14.95-6.48-21.85-10.63 1.84-1.36 3.63-2.78 5.38-4.23 42.13 19.7 87.89 19.7 129.51 0 1.75 1.45 3.56 2.87 5.37 4.23-6.92 4.18-14.23 7.76-21.84 10.63 4.01 8.02 8.64 15.65 13.9 22.87 21.15-6.58 42.66-16.64 64.84-33.2 5.31-56.29-9.07-105.1-38.04-148.38zM85.47 135.09c-12.64 0-23-11.81-23-26.18s10.15-26.2 23-26.2c12.86 0 23.23 11.8 23 26.2.02 14.37-10.14 26.18-23 26.18zm85.06 0c-12.64 0-23-11.81-23-26.18s10.14-26.2 23-26.2c12.86 0 23.23 11.8 23 26.2 0 14.37-10.14 26.18-23 26.18z"/>
  </g>
</svg>
