<svg width="42" height="42" viewBox="0 0 24 24" fill="none" xmlns="http://www.w3.org/2000/svg" preserveAspectRatio="xMidYMid meet">
  <defs>
    <filter id="emailGlow" x="-100%" y="-100%" width="300%" height="300%">
      <feGaussianBlur in="SourceAlpha" stdDeviation="3" result="blur"/>
      <feMerge>
        <feMergeNode in="blur"/>
        <feMergeNode in="SourceGraphic"/>
      </feMerge>
    </filter>
    <path id="emailPath" d="M19 18V21M19 15H19.01M15 19H6.2C5.08 19 4.52 19 4.092 18.782C3.716 18.59 3.41 18.284 3.218 17.908C3 17.48 3 16.92 3 15.8V8.2C3 7.08 3 6.52 3.218 6.092C3.41 5.716 3.716 5.41 4.092 5.218C4.52 5 5.08 5 6.2 5H17.8C18.92 5 19.48 5 19.908 5.218C20.284 5.41 20.59 5.716 20.782 6.092C21 6.52 21 7.08 21 8.2V11.5M20.607 8.262L15.55 11.634C14.267 12.489 13.625 12.917 12.932 13.083C12.319 13.23 11.68 13.23 11.068 13.083C10.374 12.917 9.733 12.489 8.45 11.634L3.147 8.099"/>
  </defs>

  <!-- Glow Copy -->
  <use href="#emailPath" stroke="#3B82F6" stroke-width="2" filter="url(#emailGlow)" stroke-linecap="round" stroke-linejoin="round"/>

  <!-- Main Icon -->
  <use href="#emailPath" stroke="#3B82F6" stroke-width="2" stroke-linecap="round" stroke-linejoin="round"/>
</svg>
